# xmcd
#
# Track frame offsets:
#	183
#	14678
#	29603
#	46585
#	59443
#	83550
#	111393
#	129503
#	154460
#	169208
#
# Disc length: 2451 seconds
#
# Revision: 0
# Processed by: cddbd v1.4PL0 Copyright (c) Steve Scherf et al.
# Submitted via: dBpowerAMP V4.0
#
DISCID=8409910a
DTITLE=John Dr - Hollywood Be Thy name
DYEAR=1980
DGENRE=Blues
TTITLE0=New Island Soiree
TTITLE1=Reggae Doctor
TTITLE2=The Way You Do The Things You Do
TTITLE3=Swanee River Boogie
TTITLE4=Yesterday
TTITLE5=Babylon
TTITLE6=Back By The River
TTITLE7=Medly - Its Allright With Me/Blues Skyes/Will The Circle Be Unbroken
TTITLE8=Holywood Be Thy Name
TTITLE9=Wanna Rock
EXTD=\nLAz ( ZZipperman )
EXTT0=
EXTT1=
EXTT2=
EXTT3=
EXTT4=
EXTT5=
EXTT6=
EXTT7=
EXTT8=
EXTT9=
PLAYORDER=
